<svg width="181" height="20" viewBox="0 0 181 20" fill="none" xmlns="http://www.w3.org/2000/svg">
<g clip-path="url(#clip0_631_1419)">
<path d="M162.509 8.92285V2.21247H158.782V0.0195312H169.406V2.21247H165.691V8.92041H162.509V8.92285Z" fill="#31CFFF"></path>
<path d="M168.246 0.0195312H171.726L174.517 6.65682L174.611 6.94433H174.623L174.729 6.65682L177.511 0.0195312H181L176.765 8.92041H172.412L168.246 0.0195312Z" fill="#31CFFF"></path>
<path d="M36.6561 13.774L36.6489 1.56908C36.6489 0.750381 35.9847 0.0851906 35.1714 0.0851906C34.3556 0.0851906 33.6939 0.750381 33.6939 1.57151L33.6963 13.8641C33.6963 13.8641 33.7131 14.5586 33.2511 14.7316C33.2511 14.7316 32.8131 14.9777 32.1875 14.3393L18.719 1.08907C18.2546 0.621241 17.5736 0.0778809 16.4594 0.0778809C15.1865 0.0778809 14.3202 0.937999 14.1565 1.10612L0.437826 15.3431C-0.272053 16.1521 0.0167111 17.0025 0.356009 17.3704C1.16936 18.2524 2.2017 17.6872 2.26185 17.6506C5.58265 15.6989 11.9499 11.1449 24.7638 11.1522L29.8389 16.1886C30.2455 16.6004 32.1634 18.5521 34.6444 17.4825C36.9064 16.5078 36.6561 13.9884 36.6561 13.774ZM16.4979 2.97012L21.9532 8.42078C16.0407 8.43297 10.0392 10.4895 8.5882 11.0694L16.4979 2.97012Z" fill="white"></path>
<path d="M67.5539 5.23613C67.5515 2.38045 65.2727 0.0656806 62.4644 0.0681172C62.4284 0.0681172 45.9592 0.0851733 45.9592 0.0851733C42.8549 0.0876099 40.5689 2.00277 40.5713 5.56995L40.5785 16.2593C40.5785 17.0877 41.2427 17.7627 42.056 17.7602C42.8718 17.7602 43.5335 17.0853 43.5335 16.2569L43.5311 10.4236C50.3123 10.4188 57.5675 11.8223 65.073 17.4557C65.3208 17.6408 66.4999 18.3401 67.2844 17.4069C67.9823 16.576 67.5251 15.6112 66.897 15.0873C63.9323 12.6215 58.9945 10.4115 58.9945 10.4115L62.2334 10.409C65.0369 10.409 67.5563 8.09426 67.5539 5.23613ZM43.5263 7.41201V5.5602C43.5287 4.81704 43.7742 3.08949 45.964 3.08949C45.964 3.08949 62.2358 3.07488 62.2719 3.07488C63.4487 3.07488 64.6013 3.96667 64.6013 5.24101C64.6013 6.66885 63.4511 7.40958 62.2744 7.40958C62.2358 7.40714 43.5263 7.41201 43.5263 7.41201Z" fill="white"></path>
<path d="M118.899 0.0317383L71.1899 0.0707238C70.3742 0.0707238 69.7124 0.738351 69.7124 1.55705C69.7124 2.37574 70.3766 3.04093 71.1923 3.04093C71.1923 3.04093 82.5119 3.02388 82.5985 3.02388C85.8014 3.02144 86.2803 5.51651 86.2803 6.82984L86.2851 16.2838C86.2851 17.1025 86.9468 17.7677 87.7626 17.7677C88.5759 17.7677 89.2401 17.1001 89.2401 16.2814L89.2353 6.8274C89.2329 4.0838 88.3088 3.019 88.3088 3.019L118.903 2.99951C119.717 2.99951 120.381 2.33188 120.381 1.51319C120.376 0.696929 119.712 0.0317383 118.899 0.0317383Z" fill="white"></path>
<path d="M118.908 14.7853H99.3444C98.1388 14.7853 97.258 13.7912 97.258 12.6581C97.258 11.5251 98.1532 10.531 99.3419 10.531L118.901 10.5164C119.714 10.5164 120.378 9.85118 120.378 9.03492C120.378 8.21866 119.714 7.55591 118.901 7.55591C118.901 7.55591 99.2385 7.56809 99.2 7.56809C96.4543 7.57053 94.2525 9.8926 94.2549 12.663C94.2573 15.4334 96.4375 17.7531 99.2072 17.7506L118.913 17.7482C119.726 17.7482 120.39 17.083 120.39 16.2667C120.386 15.4505 119.719 14.7853 118.908 14.7853Z" fill="white"></path>
<path d="M150.213 14.7658L129.451 9.89992L150.463 2.90446C151.236 2.65105 151.664 1.80555 151.416 1.02584C151.166 0.248569 150.215 -0.180271 149.44 0.0731345L126.91 7.50962L126.905 1.52291C126.905 0.704213 126.32 0.0390221 125.504 0.0390221C124.691 0.0390221 124.104 0.706649 124.104 1.52535L124.106 6.20361C124.109 9.97058 125.199 11.9613 129.513 12.8945L149.744 17.6727C150.538 17.8505 151.248 17.3413 151.423 16.5421C151.597 15.7404 151.007 14.9412 150.213 14.7658Z" fill="white"></path>
<path d="M157.791 18.9616C157.497 19.2491 157.146 19.3929 156.737 19.3929C156.311 19.3929 155.955 19.2467 155.663 18.9519C155.372 18.657 155.228 18.2964 155.228 17.8651C155.228 17.4192 155.384 17.0489 155.697 16.7516C155.991 16.4739 156.337 16.3374 156.734 16.3374C157.15 16.3374 157.507 16.486 157.8 16.7833C158.094 17.083 158.243 17.4412 158.243 17.8627C158.243 18.2989 158.091 18.6643 157.791 18.9616ZM155.846 16.9807C155.606 17.2292 155.488 17.524 155.488 17.8651C155.488 18.2185 155.61 18.5182 155.853 18.7667C156.096 19.0152 156.39 19.137 156.734 19.137C157.076 19.137 157.369 19.0128 157.612 18.7643C157.856 18.5133 157.976 18.2136 157.976 17.8651C157.976 17.5265 157.856 17.2316 157.612 16.9807C157.367 16.7273 157.076 16.6006 156.732 16.6006C156.388 16.6006 156.092 16.7273 155.846 16.9807ZM156.072 18.7155V17.0221C156.176 17.0221 156.332 17.0221 156.539 17.0221C156.746 17.0221 156.862 17.0245 156.883 17.0245C157.016 17.0343 157.126 17.0635 157.213 17.1122C157.362 17.1951 157.437 17.3291 157.437 17.5167C157.437 17.658 157.398 17.7628 157.319 17.8262C157.24 17.8895 157.143 17.9261 157.03 17.9407C157.136 17.9626 157.215 17.9943 157.268 18.0381C157.367 18.1186 157.415 18.2453 157.415 18.4183V18.5693C157.415 18.5864 157.415 18.6034 157.418 18.6181C157.42 18.6351 157.425 18.6522 157.43 18.6668L157.444 18.7155H157.028C157.013 18.6619 157.004 18.5839 156.999 18.4816C156.994 18.3793 156.984 18.311 156.97 18.2745C156.948 18.216 156.907 18.1746 156.847 18.1502C156.814 18.1356 156.765 18.1283 156.698 18.1234L156.602 18.1161H156.51V18.7155H156.072ZM156.871 17.3559C156.811 17.3315 156.727 17.3193 156.619 17.3218H156.513V17.814H156.681C156.782 17.814 156.864 17.792 156.919 17.7506C156.977 17.7092 157.006 17.6434 157.006 17.5508C157.006 17.4582 156.96 17.3924 156.871 17.3559Z" fill="white"></path>
</g>
<defs>
<clipPath id="clip0_631_1419">
<rect width="181" height="19.3929" fill="white"></rect>
</clipPath>
</defs>
</svg>